HIERARCHY
ROOT Hips
{
	OFFSET 0.000000 0.000000 0.000000
	CHANNELS 6 Xposition Yposition Zposition Xrotation Yrotation Zrotation
	JOINT LeftUpLeg_virtual
	{
		OFFSET 0.000000 0.000000 0.000000
		CHANNELS 3 Xrotation Yrotation Zrotation
		JOINT LeftUpLeg
		{
			OFFSET 15.427100 -6.655098 0.678600
			CHANNELS 3 Xrotation Yrotation Zrotation
			JOINT LeftLeg
			{
				OFFSET 4.081073 -39.591068 13.024000
				CHANNELS 3 Xrotation Yrotation Zrotation
				JOINT LeftFoot
				{
					OFFSET -4.081074 -37.707932 -15.979700
					CHANNELS 3 Xrotation Yrotation Zrotation
					JOINT LeftToeBase
					{
						OFFSET 5.346399 -15.068900 20.645000
						CHANNELS 3 Xrotation Yrotation Zrotation
						JOINT LeftToe_End
						{
							OFFSET 2.754700 0.931300 11.300900
							CHANNELS 3 Xrotation Yrotation Zrotation
							End Site
							{
								OFFSET 0 0 0
							}
						}
					}
				}
			}
		}
	}
	JOINT RightUpLeg_virtual
	{
		OFFSET 0.000000 0.000000 0.000000
		CHANNELS 3 Xrotation Yrotation Zrotation
		JOINT RightUpLeg
		{
			OFFSET -15.569500 -6.655098 0.678600
			CHANNELS 3 Xrotation Yrotation Zrotation
			JOINT RightLeg
			{
				OFFSET -4.081825 -39.591045 13.023800
				CHANNELS 3 Xrotation Yrotation Zrotation
				JOINT RightFoot
				{
					OFFSET 4.081824 -37.707954 -15.979600
					CHANNELS 3 Xrotation Yrotation Zrotation
					JOINT RightToeBase
					{
						OFFSET -5.346400 -15.068900 20.645000
						CHANNELS 3 Xrotation Yrotation Zrotation
						JOINT RightToe_End
						{
							OFFSET -2.754700 0.931300 11.300900
							CHANNELS 3 Xrotation Yrotation Zrotation
							End Site
							{
								OFFSET 0 0 0
							}
						}
					}
				}
			}
		}
	}
	JOINT Spine_virtual
	{
		OFFSET 0.000000 0.000000 0.000000
		CHANNELS 3 Xrotation Yrotation Zrotation
		JOINT Spine
		{
			OFFSET -0.279200 12.230698 -2.892100
			CHANNELS 3 Xrotation Yrotation Zrotation
			JOINT Spine1
			{
				OFFSET -0.232667 10.192268 -1.242267
				CHANNELS 3 Xrotation Yrotation Zrotation
				JOINT Spine1_split
				{
					OFFSET -0.232667 10.192268 -1.242267
					CHANNELS 3 Xrotation Yrotation Zrotation
					JOINT Spine2
					{
						OFFSET -0.232667 10.192268 -1.242267
						CHANNELS 3 Xrotation Yrotation Zrotation
						JOINT Neck_virtual
						{
							OFFSET 0.000000 0.000000 0.000000
							CHANNELS 3 Xrotation Yrotation Zrotation
							JOINT Neck
							{
								OFFSET -0.418800 17.814194 8.416900
								CHANNELS 3 Xrotation Yrotation Zrotation
								JOINT Head
								{
									OFFSET 0.000000 7.031097 3.806800
									CHANNELS 3 Xrotation Yrotation Zrotation
									JOINT HeadTop_End
									{
										OFFSET 0.000000 24.646606 12.978600
										CHANNELS 3 Xrotation Yrotation Zrotation
										End Site
										{
											OFFSET 0 0 0
										}
									}
								}
							}
						}
						JOINT LeftShoulder_virtual
						{
							OFFSET 0.000000 0.000000 0.000000
							CHANNELS 3 Xrotation Yrotation Zrotation
							JOINT LeftShoulder
							{
								OFFSET 8.476499 7.247704 -3.868750
								CHANNELS 3 Xrotation Yrotation Zrotation
								JOINT LeftShoulder_split
								{
									OFFSET 8.476499 7.247704 -3.868750
									CHANNELS 3 Xrotation Yrotation Zrotation
									JOINT LeftArm
									{
										OFFSET 9.308998 -2.777710 0.208600
										CHANNELS 3 Xrotation Yrotation Zrotation
										JOINT LeftForeArm
										{
											OFFSET 29.972298 0.000000 0.000000
											CHANNELS 3 Xrotation Yrotation Zrotation
											JOINT LeftHand
											{
												OFFSET 26.026505 0.000000 0.000000
												CHANNELS 3 Xrotation Yrotation Zrotation
												End Site
												{
													OFFSET 0 0 0
												}
											}
										}
									}
								}
							}
						}
						JOINT RightShoulder_virtual
						{
							OFFSET 0.000000 0.000000 0.000000
							CHANNELS 3 Xrotation Yrotation Zrotation
							JOINT RightShoulder
							{
								OFFSET -7.570500 7.247704 -3.868750
								CHANNELS 3 Xrotation Yrotation Zrotation
								JOINT RightShoulder_split
								{
									OFFSET -7.570500 7.247704 -3.868750
									CHANNELS 3 Xrotation Yrotation Zrotation
									JOINT RightArm
									{
										OFFSET -9.308998 -2.777710 0.208500
										CHANNELS 3 Xrotation Yrotation Zrotation
										JOINT RightForeArm
										{
											OFFSET -29.972300 0.000000 0.000000
											CHANNELS 3 Xrotation Yrotation Zrotation
											JOINT RightHand
											{
												OFFSET -26.026505 0.000000 0.000000
												CHANNELS 3 Xrotation Yrotation Zrotation
												End Site
												{
													OFFSET 0 0 0
												}
											}
										}
									}
								}
							}
						}
					}
				}
			}
		}
	}
}
MOTION
Frames: 7
Frame Time: 0.03333333
4.856044 83.401634 1.698875 0.000000 0.000000 0.000000 -1.301318 -49.874130 -2.530322 -32.806744 5.723976 11.567917 32.230023 -12.241417 2.391303 -0.867252 -4.628070 -3.901192 -9.403312 -4.260178 4.084517 0.000000 0.000000 0.000000 -2.563142 -48.830269 -2.543299 5.293443 -3.646238 -15.134359 25.727996 -5.258533 0.012305 -23.853667 -6.248005 27.623580 -7.861989 1.092077 0.785186 0.000000 0.000000 0.000000 -6.100208 -48.293880 -4.940513 11.201474 7.555223 0.310241 11.156639 9.886847 -3.743256 -1.098466 1.501751 0.562290 0.000000 0.000000 0.000000 12.086998 9.608427 -4.508414 -16.381840 -3.227004 3.289761 3.425961 22.576360 -5.751076 0.000000 0.000000 0.000000 13.521442 8.921924 -3.343054 0.346940 -3.035072 -10.107182 0.871736 1.576573 2.818895 -9.938036 -6.344225 -57.202069 9.316434 -58.491213 -0.233458 0.000000 0.000000 0.000000 10.483740 9.851019 -2.925623 0.979009 17.311499 6.786999 3.392873 -0.012168 2.543895 -18.986299 -21.062374 67.114156 4.172041 49.538583 -3.081889 0.000000 0.000000 0.000000 
5.604655 83.076080 1.071590 0.000000 0.000000 0.000000 0.279647 -51.523733 -1.449173 -35.284067 4.034181 12.503676 32.633076 -11.754149 2.182501 -0.343799 -3.987137 -3.351843 -7.579761 -3.818371 3.273618 0.000000 0.000000 0.000000 -1.139141 -49.488081 -1.619506 4.255248 -3.950263 -15.881295 27.152650 -4.264635 0.233062 -23.695332 -5.832285 28.115009 -6.809573 0.744791 0.818462 0.000000 0.000000 0.000000 -3.986256 -49.447079 -3.538910 11.129838 7.851820 0.399145 11.444936 9.712349 -3.769980 -0.405193 0.312206 1.233480 0.000000 0.000000 0.000000 12.413833 9.461581 -4.560683 -16.311991 -1.965530 3.624965 3.031018 23.927901 -6.275066 0.000000 0.000000 0.000000 13.656488 8.714874 -3.584665 0.056823 -4.225181 -8.865497 -0.748744 -1.125590 0.092250 -10.622909 -5.133139 -56.770582 6.731068 -52.177048 -1.568624 0.000000 0.000000 0.000000 10.519639 9.722362 -3.057375 0.579804 17.213043 6.998978 4.704537 -0.017948 2.386787 -16.625737 -21.105223 67.172240 3.623771 51.897628 -2.798627 0.000000 0.000000 0.000000 
6.566977 81.217438 -0.219189 0.000000 0.000000 0.000000 3.333874 -52.682035 1.477709 -41.680079 1.156295 13.282849 35.908118 -10.611958 1.746643 1.095407 -2.090270 -4.303762 -2.248593 -2.960140 1.432389 0.000000 0.000000 0.000000 1.836309 -49.884099 1.060896 -0.807309 -3.774426 -17.380333 32.003432 -3.776276 0.697651 -24.054347 -5.803878 27.083440 -4.562025 0.205718 0.798262 0.000000 0.000000 0.000000 -0.071298 -50.452111 -0.103450 11.107659 8.035430 0.199267 12.022189 9.263989 -3.843402 -0.101066 -0.810992 0.853165 0.000000 0.000000 0.000000 13.199359 8.927894 -4.703178 -17.891803 -0.808155 4.611792 1.781218 26.405306 -7.131840 0.000000 0.000000 0.000000 13.974125 8.235739 -3.877557 -0.396887 -5.831282 -6.953573 -2.442400 -4.325689 -2.960929 -11.946265 -8.092693 -54.881069 7.835221 -44.590958 -0.007453 0.000000 0.000000 0.000000 11.033505 9.264884 -3.296839 -0.187721 16.942535 7.475166 5.089608 0.810378 2.334664 -14.171217 -19.378169 65.872332 2.195928 53.708257 -1.704613 0.000000 0.000000 0.000000 
7.518633 78.021942 -1.849995 0.000000 0.000000 0.000000 7.872957 -52.942647 6.180264 -50.214134 -2.398531 12.714165 41.167391 -9.240454 1.432319 2.889723 0.412962 -7.093160 2.072859 -2.197597 -0.199354 0.000000 0.000000 0.000000 6.161286 -50.394396 5.481401 -9.510781 -3.148556 -19.836030 39.851111 -3.698637 1.297965 -25.216965 -5.729272 24.627033 -1.515120 -0.446073 0.557523 0.000000 0.000000 0.000000 5.501368 -50.819579 5.264473 10.975183 7.975492 -0.308524 12.729843 8.509430 -3.901131 -0.712326 -1.971087 0.522810 0.000000 0.000000 0.000000 14.205797 8.124034 -4.844768 -20.919973 0.200538 5.980306 0.320077 29.601097 -8.144385 0.000000 0.000000 0.000000 14.399325 7.527278 -4.074371 -0.923514 -7.277152 -5.197216 -3.040193 -6.262900 -5.551491 -14.586388 -13.518339 -52.189028 10.300663 -38.005570 2.345939 0.000000 0.000000 0.000000 11.944958 8.475243 -3.576184 -1.152631 16.734882 8.397962 4.396539 2.556637 2.527545 -11.955098 -16.063577 63.350817 0.081413 54.358597 0.212887 0.000000 0.000000 0.000000 
8.457253 73.845032 -3.710312 0.000000 0.000000 0.000000 13.249668 -52.241890 12.054774 -59.075638 -5.769290 10.915116 46.855692 -7.630009 1.279118 3.459149 2.814773 -10.624816 2.366629 -1.618252 -0.719952 0.000000 0.000000 0.000000 11.237284 -50.565885 11.200936 -21.189158 -1.850406 -23.354896 49.873167 -3.625055 2.041881 -26.563482 -5.191001 22.041169 0.730203 -1.158328 -0.053900 0.000000 0.000000 0.000000 12.189849 -50.407103 11.880259 10.557578 7.559436 -1.070053 13.520216 7.499028 -3.961608 -0.654764 -2.900351 0.057407 0.000000 0.000000 0.000000 15.145285 7.142519 -4.871276 -24.881920 1.048194 7.450440 -0.635571 32.990043 -9.227730 0.000000 0.000000 0.000000 14.800897 6.651841 -4.176551 -1.535900 -8.347710 -4.486890 -2.452742 -6.704275 -5.536287 -17.572231 -18.881250 -49.720096 12.572870 -34.530803 4.377014 0.000000 0.000000 0.000000 13.111503 7.428626 -3.796597 -2.307621 17.049597 10.176144 2.632153 5.153134 2.890430 -10.374226 -11.926670 59.781743 -2.678795 53.371477 2.831527 0.000000 0.000000 0.000000 
9.074592 69.249542 -5.102051 0.000000 0.000000 0.000000 18.711132 -50.218454 18.082104 -67.434751 -8.221019 8.925649 52.509077 -6.080312 1.130043 2.469621 4.520597 -14.057710 -0.053903 -1.201379 -0.647713 0.000000 0.000000 0.000000 16.396006 -50.277248 17.469812 -33.976001 0.331092 -27.534951 60.858147 -2.941055 2.737073 -27.683074 -4.048825 20.808096 0.931084 -1.862362 -1.069348 0.000000 0.000000 0.000000 19.075745 -49.485783 18.561596 9.879971 6.706108 -1.977187 14.276338 6.312142 -4.067813 -0.107926 -3.679794 0.252754 0.000000 0.000000 0.000000 15.774419 6.047825 -4.778145 -29.180433 1.878002 8.972906 -0.557899 36.060137 -10.279645 0.000000 0.000000 0.000000 15.179073 5.650784 -4.283212 -2.301823 -8.916164 -5.350113 -1.216250 -5.625376 -3.871945 -19.924003 -21.986229 -47.998868 13.845409 -36.128313 5.930533 0.000000 0.000000 0.000000 14.313698 6.239047 -3.940774 -3.754811 18.233362 13.161748 0.004783 7.347550 3.387812 -9.560080 -8.124527 55.510921 -5.690888 51.272611 5.623930 0.000000 0.000000 0.000000 
9.187884 64.331017 -5.954556 0.000000 0.000000 0.000000 22.945006 -47.377846 22.877297 -75.176149 -10.031453 7.724592 58.226154 -5.292755 0.940045 1.394608 5.082780 -17.735834 -2.111123 -0.882036 -0.638349 0.000000 0.000000 0.000000 20.895099 -49.651473 23.233963 -45.564759 3.523372 -31.642347 71.282798 -1.442382 2.817314 -29.513094 -2.638443 21.381076 -0.777214 -2.416381 -2.304989 0.000000 0.000000 0.000000 24.988105 -48.331628 24.107945 9.149867 5.562393 -2.853213 14.869069 5.002423 -4.236720 0.767080 -3.861108 1.025481 0.000000 0.000000 0.000000 15.923423 4.849392 -4.637853 -33.334977 2.983051 10.640345 0.639705 38.269202 -11.067882 0.000000 0.000000 0.000000 15.401289 4.550961 -4.495817 -3.147891 -9.116374 -7.462075 -0.371526 -3.985775 -2.290792 -21.585978 -22.498242 -47.770985 13.434919 -42.781730 6.832933 0.000000 0.000000 0.000000 15.330373 4.960762 -4.092406 -5.695899 20.224788 17.448859 -2.677080 8.900851 3.104290 -9.320241 -5.081280 51.670825 -8.601061 48.915018 7.851956 0.000000 0.000000 0.000000 
